<?xml version="1.0" encoding="UTF-8"?>
<svg width="100px" height="13px" viewBox="0 0 100 13" version="1.1" xmlns="http://www.w3.org/2000/svg" xmlns:xlink="http://www.w3.org/1999/xlink">
    <!-- Generator: Sketch 57.1 (83088) - https://sketch.com -->
    <title>Info / Rating</title>
    <desc>Created with Sketch.</desc>
    <defs>
        <path d="M6.79573742,0.238112739 L8.35031599,3.10607249 C8.45118356,3.29241635 8.64630012,3.42138655 8.87186227,3.45127871 L12.3476903,3.91099118 C12.7326285,3.96209713 12.8861802,4.39264064 12.6079339,4.63997414 L10.0925983,6.87248446 C9.92925101,7.01712393 9.85485792,7.22588692 9.89351059,7.43079284 L10.4870673,10.5827281 C10.5527239,10.9317913 10.1505773,11.198169 9.80640968,11.0332801 L6.69751728,9.54493984 C6.49551737,9.44827244 6.25460005,9.44827244 6.05260015,9.54493984 L2.94370775,11.0332801 C2.59954015,11.198169 2.19712881,10.9317913 2.2627854,10.5827281 L2.85660687,7.43079284 C2.89525955,7.22588692 2.82060164,7.01712393 2.65751915,6.87248446 L0.142183497,4.63997414 C-0.136327514,4.39264064 0.0174889279,3.96209713 0.40242715,3.91099118 L3.87799041,3.45127871 C4.1038173,3.42138655 4.29893386,3.29241635 4.39980144,3.10607249 L5.95411526,0.238112739 C6.12646381,-0.0793709128 6.62365362,-0.0793709128 6.79573742,0.238112739 Z" id="path-1"></path>
        <path d="M6.85823742,0.238112739 L8.41281599,3.10607249 C8.51368356,3.29241635 8.70880012,3.42138655 8.93436227,3.45127871 L12.4101903,3.91099118 C12.7951285,3.96209713 12.9486802,4.39264064 12.6704339,4.63997414 L10.1550983,6.87248446 C9.99175101,7.01712393 9.91735792,7.22588692 9.95601059,7.43079284 L10.5495673,10.5827281 C10.6152239,10.9317913 10.2130773,11.198169 9.86890968,11.0332801 L6.76001728,9.54493984 C6.55801737,9.44827244 6.31710005,9.44827244 6.11510015,9.54493984 L3.00620775,11.0332801 C2.66204015,11.198169 2.25962881,10.9317913 2.3252854,10.5827281 L2.91910687,7.43079284 C2.95775955,7.22588692 2.88310164,7.01712393 2.72001915,6.87248446 L0.204683497,4.63997414 C-0.073827514,4.39264064 0.0799889279,3.96209713 0.46492715,3.91099118 L3.94049041,3.45127871 C4.1663173,3.42138655 4.36143386,3.29241635 4.46230144,3.10607249 L6.01661526,0.238112739 C6.18896381,-0.0793709128 6.68615362,-0.0793709128 6.85823742,0.238112739 Z" id="path-3"></path>
        <path d="M28.3113624,0.238112739 L29.865941,3.10607249 C29.9668086,3.29241635 30.1619251,3.42138655 30.3874873,3.45127871 L33.8633153,3.91099118 C34.2482535,3.96209713 34.4018052,4.39264064 34.1235589,4.63997414 L31.6082233,6.87248446 C31.444876,7.01712393 31.3704829,7.22588692 31.4091356,7.43079284 L32.0026923,10.5827281 C32.0683489,10.9317913 31.6662023,11.198169 31.3220347,11.0332801 L28.2131423,9.54493984 C28.0111424,9.44827244 27.7702251,9.44827244 27.5682251,9.54493984 L24.4593328,11.0332801 C24.1151652,11.198169 23.7127538,10.9317913 23.7784104,10.5827281 L24.3722319,7.43079284 C24.4108845,7.22588692 24.3362266,7.01712393 24.1731442,6.87248446 L21.6578085,4.63997414 C21.3792975,4.39264064 21.5331139,3.96209713 21.9180521,3.91099118 L25.3936154,3.45127871 C25.6194423,3.42138655 25.8145589,3.29241635 25.9154264,3.10607249 L27.4697403,0.238112739 C27.6420888,-0.0793709128 28.1392786,-0.0793709128 28.3113624,0.238112739 Z" id="path-5"></path>
        <path d="M6.79573742,0.238112739 L8.35031599,3.10607249 C8.45118356,3.29241635 8.64630012,3.42138655 8.87186227,3.45127871 L12.3476903,3.91099118 C12.7326285,3.96209713 12.8861802,4.39264064 12.6079339,4.63997414 L10.0925983,6.87248446 C9.92925101,7.01712393 9.85485792,7.22588692 9.89351059,7.43079284 L10.4870673,10.5827281 C10.5527239,10.9317913 10.1505773,11.198169 9.80640968,11.0332801 L6.69751728,9.54493984 C6.49551737,9.44827244 6.25460005,9.44827244 6.05260015,9.54493984 L2.94370775,11.0332801 C2.59954015,11.198169 2.19712881,10.9317913 2.2627854,10.5827281 L2.85660687,7.43079284 C2.89525955,7.22588692 2.82060164,7.01712393 2.65751915,6.87248446 L0.142183497,4.63997414 C-0.136327514,4.39264064 0.0174889279,3.96209713 0.40242715,3.91099118 L3.87799041,3.45127871 C4.1038173,3.42138655 4.29893386,3.29241635 4.39980144,3.10607249 L5.95411526,0.238112739 C6.12646381,-0.0793709128 6.62365362,-0.0793709128 6.79573742,0.238112739 Z" id="path-7"></path>
    </defs>
    <g id="HP" stroke="none" stroke-width="1" fill="none" fill-rule="evenodd">
        <g id="Mobile_HP-Copy" transform="translate(-22.000000, -3070.000000)">
            <g id="Info-/-Rating" transform="translate(22.000000, 3067.000000)">
                <g id="Graphic">
                    <g id="Star-4" transform="translate(64.546875, 3.958333)"></g>
                    <g id="Half-Star" transform="translate(82.875000, 0.000000)">
                        <rect id="Rectangle" x="0" y="0" width="19.125" height="19"></rect>
                        <g id="Icon" transform="translate(3.187500, 3.958333)"></g>
                    </g>
                    <g id="Star-3" transform="translate(43.031250, 3.958333)">
                        <mask id="mask-2" fill="white">
                            <use xlink:href="#path-1"></use>
                        </mask>
                        <use id="Base" fill="#000000" xlink:href="#path-1"></use>
                    </g>
                    <g id="Star-2" transform="translate(21.515625, 3.958333)"></g>
                    <g id="Star-1" transform="translate(0.000000, 3.958333)">
                        <g id="Rectangle" transform="translate(86.000000, 0.000000)">
                            <mask id="mask-4" fill="white">
                                <use xlink:href="#path-3"></use>
                            </mask>
                            <g id="Mask"></g>
                            <rect fill="#000000" mask="url(#mask-4)" x="0" y="-3" width="6" height="18"></rect>
                        </g>
                        <mask id="mask-6" fill="white">
                            <use xlink:href="#path-5"></use>
                        </mask>
                        <use id="Base" fill="#000000" xlink:href="#path-5"></use>
                        <mask id="mask-8" fill="white">
                            <use xlink:href="#path-7"></use>
                        </mask>
                        <use id="Base" fill="#000000" xlink:href="#path-7"></use>
                        <path d="M71.3426124,0.238112739 L72.897191,3.10607249 C72.9980586,3.29241635 73.1931751,3.42138655 73.4187373,3.45127871 L76.8945653,3.91099118 C77.2795035,3.96209713 77.4330552,4.39264064 77.1548089,4.63997414 L74.6394733,6.87248446 C74.476126,7.01712393 74.4017329,7.22588692 74.4403856,7.43079284 L75.0339423,10.5827281 C75.0995989,10.9317913 74.6974523,11.198169 74.3532847,11.0332801 L71.2443923,9.54493984 C71.0423924,9.44827244 70.8014751,9.44827244 70.5994751,9.54493984 L67.4905828,11.0332801 C67.1464152,11.198169 66.7440038,10.9317913 66.8096604,10.5827281 L67.4034819,7.43079284 C67.4421345,7.22588692 67.3674766,7.01712393 67.2043942,6.87248446 L64.6890585,4.63997414 C64.4105475,4.39264064 64.5643639,3.96209713 64.9493021,3.91099118 L68.4248654,3.45127871 C68.6506923,3.42138655 68.8458089,3.29241635 68.9466764,3.10607249 L70.5009903,0.238112739 C70.6733388,-0.0793709128 71.1705286,-0.0793709128 71.3426124,0.238112739 Z" id="Base" fill="#000000"></path>
                        <path d="M92.7957374,0.238112739 L94.350316,3.10607249 C94.4511836,3.29241635 94.6463001,3.42138655 94.8718623,3.45127871 L98.3476903,3.91099118 C98.7326285,3.96209713 98.8861802,4.39264064 98.6079339,4.63997414 L96.0925983,6.87248446 C95.929251,7.01712393 95.8548579,7.22588692 95.8935106,7.43079284 L96.4870673,10.5827281 C96.5527239,10.9317913 96.1505773,11.198169 95.8064097,11.0332801 L92.6975173,9.54493984 C92.4955174,9.44827244 92.2546001,9.44827244 92.0526001,9.54493984 L88.9437078,11.0332801 C88.5995402,11.198169 88.1971288,10.9317913 88.2627854,10.5827281 L88.8566069,7.43079284 C88.8952595,7.22588692 88.8206016,7.01712393 88.6575192,6.87248446 L86.1421835,4.63997414 C85.8636725,4.39264064 86.0174889,3.96209713 86.4024271,3.91099118 L89.8779904,3.45127871 C90.1038173,3.42138655 90.2989339,3.29241635 90.3998014,3.10607249 L91.9541153,0.238112739 C92.1264638,-0.0793709128 92.6236536,-0.0793709128 92.7957374,0.238112739 Z" id="Base-Copy" stroke="#000000" stroke-width="0.8" stroke-linecap="round" stroke-linejoin="round"></path>
                    </g>
                </g>
            </g>
        </g>
    </g>
</svg>